<mxfile host="65bd71144e">
    <diagram id="T4tWRvFm299wrqcTYsSZ" name="Page-1">
        <mxGraphModel dx="3450" dy="2870" grid="1" gridSize="10" guides="1" tooltips="1" connect="1" arrows="1" fold="1" page="1" pageScale="1" pageWidth="3300" pageHeight="4681" background="#FFFFFF" math="0" shadow="0">
            <root>
                <mxCell id="0"/>
                <mxCell id="1" parent="0"/>
                <mxCell id="5" style="edgeStyle=none;html=1;fontColor=#000000;strokeColor=#000000;" parent="1" source="3" target="4" edge="1">
                    <mxGeometry relative="1" as="geometry"/>
                </mxCell>
                <mxCell id="3" value="Vous vous réveillez sur la banquette arrière d'une voiture inconnue" style="rounded=1;whiteSpace=wrap;html=1;fillColor=#1ba1e2;fontColor=#000000;strokeColor=#000000;" parent="1" vertex="1">
                    <mxGeometry x="1093" y="184" width="120" height="70" as="geometry"/>
                </mxCell>
                <mxCell id="10" value="&lt;span style=&quot;background-color: rgb(255 , 255 , 255)&quot;&gt;Attendre&lt;/span&gt;" style="edgeStyle=none;html=1;fontColor=#000000;strokeColor=#000000;" parent="1" source="4" target="7" edge="1">
                    <mxGeometry relative="1" as="geometry"/>
                </mxCell>
                <mxCell id="12" value="&lt;span style=&quot;background-color: rgb(255 , 255 , 255)&quot;&gt;Ouvrir la porte&lt;/span&gt;" style="edgeStyle=none;html=1;exitX=0.5;exitY=1;exitDx=0;exitDy=0;fontColor=#000000;strokeColor=#000000;" parent="1" source="4" target="8" edge="1">
                    <mxGeometry relative="1" as="geometry"/>
                </mxCell>
                <mxCell id="13" value="&lt;span style=&quot;background-color: rgb(255 , 255 , 255)&quot;&gt;Attaquer l'inconnu&lt;/span&gt;" style="edgeStyle=none;html=1;exitX=1;exitY=0.5;exitDx=0;exitDy=0;entryX=0;entryY=0.5;entryDx=0;entryDy=0;fontColor=#000000;strokeColor=#000000;" parent="1" source="4" target="9" edge="1">
                    <mxGeometry relative="1" as="geometry"/>
                </mxCell>
                <mxCell id="4" value="Vous vous sentez en danger" style="rhombus;whiteSpace=wrap;html=1;align=center;fillColor=#99004D;strokeColor=#000000;fontColor=#000000;" parent="1" vertex="1">
                    <mxGeometry x="1063" y="294" width="180" height="120" as="geometry"/>
                </mxCell>
                <mxCell id="22" style="edgeStyle=none;html=1;exitX=0.5;exitY=1;exitDx=0;exitDy=0;entryX=0.5;entryY=0;entryDx=0;entryDy=0;fontColor=#000000;strokeColor=#000000;" parent="1" source="7" target="21" edge="1">
                    <mxGeometry relative="1" as="geometry"/>
                </mxCell>
                <mxCell id="7" value="Le chauffeur finit par faire un arrêt pour parler au téléphone" style="rounded=1;whiteSpace=wrap;html=1;fillColor=#1ba1e2;fontColor=#000000;strokeColor=#000000;" parent="1" vertex="1">
                    <mxGeometry x="843" y="324" width="120" height="60" as="geometry"/>
                </mxCell>
                <mxCell id="25" style="edgeStyle=none;html=1;exitX=0.5;exitY=1;exitDx=0;exitDy=0;entryX=0.5;entryY=0;entryDx=0;entryDy=0;fontColor=#000000;strokeColor=#000000;" parent="1" source="8" target="18" edge="1">
                    <mxGeometry relative="1" as="geometry"/>
                </mxCell>
                <mxCell id="8" value="&amp;nbsp;Le chauffeur s'aperçoit que vous tentez de vous échapper et se précipite vers vous" style="rounded=1;whiteSpace=wrap;html=1;fillColor=#1ba1e2;strokeColor=#000000;fontColor=#000000;" parent="1" vertex="1">
                    <mxGeometry x="1093" y="485" width="120" height="100" as="geometry"/>
                </mxCell>
                <mxCell id="15" style="edgeStyle=none;html=1;exitX=0.5;exitY=0;exitDx=0;exitDy=0;entryX=1;entryY=0.5;entryDx=0;entryDy=0;fontColor=#000000;strokeColor=#000000;" parent="1" source="9" target="3" edge="1">
                    <mxGeometry relative="1" as="geometry">
                        <Array as="points">
                            <mxPoint x="1453" y="219"/>
                        </Array>
                    </mxGeometry>
                </mxCell>
                <mxCell id="9" value="Le chauffeur lâche le volant sous l'assaut et cause un accident" style="rounded=1;whiteSpace=wrap;html=1;fillColor=#1ba1e2;fontColor=#000000;strokeColor=#000000;" parent="1" vertex="1">
                    <mxGeometry x="1393" y="324" width="120" height="60" as="geometry"/>
                </mxCell>
                <mxCell id="45" value="&lt;span style=&quot;background-color: rgb(255 , 255 , 255)&quot;&gt;Vous décidez de prendre le chemin dans la forêt&lt;/span&gt;" style="edgeStyle=none;html=1;exitX=0;exitY=0.5;exitDx=0;exitDy=0;fontSize=10;fontColor=#000000;strokeColor=#000000;" parent="1" source="18" edge="1">
                    <mxGeometry relative="1" as="geometry">
                        <mxPoint x="693" y="714" as="targetPoint"/>
                        <Array as="points">
                            <mxPoint x="693" y="685"/>
                        </Array>
                    </mxGeometry>
                </mxCell>
                <mxCell id="47" value="&lt;span style=&quot;background-color: rgb(255 , 255 , 255)&quot;&gt;Vous décidez de sauter dans la rivière&lt;/span&gt;" style="edgeStyle=none;html=1;exitX=1;exitY=0.5;exitDx=0;exitDy=0;fontSize=10;entryX=0.5;entryY=0;entryDx=0;entryDy=0;fontColor=#000000;strokeColor=#000000;" parent="1" source="18" target="49" edge="1">
                    <mxGeometry relative="1" as="geometry">
                        <mxPoint x="1648" y="685" as="targetPoint"/>
                        <Array as="points">
                            <mxPoint x="1648" y="685"/>
                        </Array>
                    </mxGeometry>
                </mxCell>
                <mxCell id="18" value="&lt;div&gt;&lt;span&gt;Vous êtes face à deux chemins&lt;/span&gt;&lt;/div&gt;" style="rhombus;whiteSpace=wrap;html=1;align=center;fillColor=#99004D;strokeColor=#000000;fontColor=#000000;" parent="1" vertex="1">
                    <mxGeometry x="1043" y="626" width="220" height="120" as="geometry"/>
                </mxCell>
                <mxCell id="26" style="edgeStyle=none;html=1;exitX=0.5;exitY=1;exitDx=0;exitDy=0;fontSize=10;fontColor=#000000;strokeColor=#000000;" parent="1" source="21" edge="1">
                    <mxGeometry relative="1" as="geometry">
                        <Array as="points">
                            <mxPoint x="903" y="626"/>
                        </Array>
                        <mxPoint x="1153" y="624" as="targetPoint"/>
                    </mxGeometry>
                </mxCell>
                <mxCell id="21" value="Vous décidez d'en profiter pour vous enfuir. L'inconnu s'en aperçoit et vous poursuit" style="rounded=1;whiteSpace=wrap;html=1;fillColor=#1ba1e2;strokeColor=#000000;fontColor=#000000;" parent="1" vertex="1">
                    <mxGeometry x="843" y="485" width="120" height="90" as="geometry"/>
                </mxCell>
                <mxCell id="37" style="edgeStyle=none;html=1;exitX=0.5;exitY=0;exitDx=0;exitDy=0;entryX=0;entryY=0.5;entryDx=0;entryDy=0;fontSize=10;entryPerimeter=0;fontColor=#000000;strokeColor=#000000;" parent="1" source="35" target="3" edge="1">
                    <mxGeometry relative="1" as="geometry">
                        <Array as="points">
                            <mxPoint x="693" y="219"/>
                        </Array>
                    </mxGeometry>
                </mxCell>
                <mxCell id="35" value="Vous vous enfargez et l'homme vous rattrape.&lt;br&gt;Vous réussissez cependant à reprendre votre téléphone." style="rounded=1;whiteSpace=wrap;html=1;fontSize=10;fillColor=#CC99FF;fontColor=#000000;strokeColor=#000000;" parent="1" vertex="1">
                    <mxGeometry x="633" y="715" width="120" height="69" as="geometry"/>
                </mxCell>
                <mxCell id="51" value="&lt;span style=&quot;background-color: rgb(255 , 255 , 255)&quot;&gt;Vous décidez de nager à contre-courant pour essayer de rejoindre la berge&lt;/span&gt;" style="edgeStyle=none;html=1;exitX=1;exitY=0.5;exitDx=0;exitDy=0;entryX=0;entryY=0.5;entryDx=0;entryDy=0;fontSize=10;fontColor=#000000;strokeColor=#000000;" parent="1" source="49" target="50" edge="1">
                    <mxGeometry relative="1" as="geometry"/>
                </mxCell>
                <mxCell id="54" value="&lt;span style=&quot;background-color: rgb(255 , 255 , 255)&quot;&gt;Vous laissez le courant vous emporter&lt;/span&gt;" style="edgeStyle=none;html=1;exitX=0.5;exitY=1;exitDx=0;exitDy=0;entryX=0.5;entryY=0;entryDx=0;entryDy=0;fontSize=10;fontColor=#000000;strokeColor=#000000;" parent="1" source="49" target="53" edge="1">
                    <mxGeometry relative="1" as="geometry"/>
                </mxCell>
                <mxCell id="49" value="Vous apercevez une chute d'eau&amp;nbsp;" style="rhombus;whiteSpace=wrap;html=1;align=center;fillColor=#99004D;strokeColor=#000000;fontColor=#000000;" parent="1" vertex="1">
                    <mxGeometry x="1543" y="703" width="210" height="120" as="geometry"/>
                </mxCell>
                <mxCell id="52" style="edgeStyle=none;html=1;exitX=0.5;exitY=0;exitDx=0;exitDy=0;entryX=1;entryY=0.5;entryDx=0;entryDy=0;fontSize=10;fontColor=#000000;strokeColor=#000000;" parent="1" source="50" target="3" edge="1">
                    <mxGeometry relative="1" as="geometry">
                        <Array as="points">
                            <mxPoint x="2193" y="219"/>
                        </Array>
                    </mxGeometry>
                </mxCell>
                <mxCell id="50" value="Vous vous épuisez et vous vous cognez la tête ce qui vous rend inconscient" style="rounded=1;whiteSpace=wrap;html=1;fontSize=10;fillColor=#1ba1e2;fontColor=#000000;strokeColor=#0D0D0D;" parent="1" vertex="1">
                    <mxGeometry x="2133" y="733" width="120" height="60" as="geometry"/>
                </mxCell>
                <mxCell id="57" style="edgeStyle=none;html=1;exitX=0.5;exitY=1;exitDx=0;exitDy=0;entryX=0.5;entryY=0;entryDx=0;entryDy=0;fontSize=10;fontColor=#000000;strokeColor=#000000;" parent="1" source="53" target="56" edge="1">
                    <mxGeometry relative="1" as="geometry"/>
                </mxCell>
                <mxCell id="53" value="Vous vous en sortez indemne&amp;nbsp;" style="rounded=1;whiteSpace=wrap;html=1;fontSize=10;fillColor=#1ba1e2;fontColor=#000000;strokeColor=#000000;" parent="1" vertex="1">
                    <mxGeometry x="1580.5" y="895" width="135" height="60" as="geometry"/>
                </mxCell>
                <mxCell id="59" value="&lt;span style=&quot;background-color: rgb(255 , 255 , 255)&quot;&gt;Vous restez immobile en pensant avoir trouvé quelqu'un qui pourra vous aider&amp;nbsp;&lt;/span&gt;" style="edgeStyle=none;html=1;exitX=0;exitY=0.5;exitDx=0;exitDy=0;entryX=1;entryY=0.5;entryDx=0;entryDy=0;fontSize=10;fontColor=#000000;strokeColor=#000000;" parent="1" source="56" target="58" edge="1">
                    <mxGeometry relative="1" as="geometry"/>
                </mxCell>
                <mxCell id="63" value="&lt;span style=&quot;background-color: rgb(255 , 255 , 255)&quot;&gt;Se cacher&lt;/span&gt;" style="edgeStyle=none;html=1;exitX=0.5;exitY=1;exitDx=0;exitDy=0;fontSize=10;fontColor=#000000;strokeColor=#000000;" parent="1" source="56" target="62" edge="1">
                    <mxGeometry relative="1" as="geometry"/>
                </mxCell>
                <mxCell id="56" value="Vous entendez soudain un bruit" style="rhombus;whiteSpace=wrap;html=1;align=center;fillColor=#99004D;fontColor=#000000;strokeColor=#000000;" parent="1" vertex="1">
                    <mxGeometry x="1543" y="1015" width="210" height="120" as="geometry"/>
                </mxCell>
                <mxCell id="61" style="edgeStyle=none;html=1;exitX=0;exitY=0.5;exitDx=0;exitDy=0;entryX=0;entryY=0.5;entryDx=0;entryDy=0;fontSize=10;fontColor=#000000;strokeColor=#000000;" parent="1" source="58" target="3" edge="1">
                    <mxGeometry relative="1" as="geometry">
                        <Array as="points">
                            <mxPoint x="513" y="1074"/>
                            <mxPoint x="513" y="219"/>
                        </Array>
                    </mxGeometry>
                </mxCell>
                <mxCell id="58" value="Un de ces complices vous a retrouvé" style="rounded=1;whiteSpace=wrap;html=1;fontSize=10;fillColor=#1ba1e2;fontColor=#000000;strokeColor=#FFFFFF;" parent="1" vertex="1">
                    <mxGeometry x="993" y="1045" width="120" height="60" as="geometry"/>
                </mxCell>
                <mxCell id="65" style="edgeStyle=none;html=1;exitX=0.5;exitY=1;exitDx=0;exitDy=0;fontSize=10;fontColor=#000000;strokeColor=#000000;" parent="1" source="62" target="64" edge="1">
                    <mxGeometry relative="1" as="geometry"/>
                </mxCell>
                <mxCell id="62" value="Vous passez innaperçu et restez en vie" style="rounded=1;whiteSpace=wrap;html=1;fontSize=10;fillColor=#1ba1e2;fontColor=#000000;strokeColor=#000000;" parent="1" vertex="1">
                    <mxGeometry x="1588" y="1285" width="120" height="60" as="geometry"/>
                </mxCell>
                <mxCell id="68" style="edgeStyle=none;html=1;exitX=0.5;exitY=0;exitDx=0;exitDy=0;entryX=0.5;entryY=0;entryDx=0;entryDy=0;fontSize=10;fontColor=#000000;strokeColor=#000000;" parent="1" source="64" target="66" edge="1">
                    <mxGeometry relative="1" as="geometry">
                        <Array as="points">
                            <mxPoint x="1273" y="1425"/>
                        </Array>
                    </mxGeometry>
                </mxCell>
                <mxCell id="69" value="&lt;span style=&quot;background-color: rgb(255 , 255 , 255)&quot;&gt;Oui&lt;/span&gt;" style="edgeLabel;html=1;align=center;verticalAlign=middle;resizable=0;points=[];fontSize=10;fontColor=#000000;" parent="68" vertex="1" connectable="0">
                    <mxGeometry x="0.2579" y="1" relative="1" as="geometry">
                        <mxPoint as="offset"/>
                    </mxGeometry>
                </mxCell>
                <mxCell id="70" style="edgeStyle=none;html=1;exitX=0.5;exitY=0;exitDx=0;exitDy=0;entryX=0.5;entryY=0;entryDx=0;entryDy=0;fontSize=10;fontColor=#000000;strokeColor=#000000;" parent="1" source="64" target="67" edge="1">
                    <mxGeometry relative="1" as="geometry">
                        <Array as="points">
                            <mxPoint x="2003" y="1425"/>
                        </Array>
                    </mxGeometry>
                </mxCell>
                <mxCell id="71" value="&lt;span style=&quot;background-color: rgb(255 , 255 , 255)&quot;&gt;Non&lt;/span&gt;" style="edgeLabel;html=1;align=center;verticalAlign=middle;resizable=0;points=[];fontSize=10;fontColor=#000000;" parent="70" vertex="1" connectable="0">
                    <mxGeometry x="-0.2754" y="-1" relative="1" as="geometry">
                        <mxPoint as="offset"/>
                    </mxGeometry>
                </mxCell>
                <mxCell id="64" value="&lt;font style=&quot;font-size: 11px&quot;&gt;Vous devez retrouver une route.&lt;br&gt;Avez-vous un téléphone ?&lt;/font&gt;" style="rhombus;whiteSpace=wrap;html=1;align=center;fillColor=#CC99FF;fontColor=#000000;strokeColor=#000000;" parent="1" vertex="1">
                    <mxGeometry x="1543" y="1425" width="210" height="131" as="geometry"/>
                </mxCell>
                <mxCell id="75" style="edgeStyle=none;html=1;exitX=0;exitY=0.5;exitDx=0;exitDy=0;entryX=1;entryY=0.5;entryDx=0;entryDy=0;fontSize=10;fontColor=#000000;strokeColor=#000000;" parent="1" source="66" target="74" edge="1">
                    <mxGeometry relative="1" as="geometry"/>
                </mxCell>
                <mxCell id="66" value="Vous trouvez une route" style="rounded=1;whiteSpace=wrap;html=1;fontSize=10;fillColor=#1ba1e2;fontColor=#000000;strokeColor=#000000;" parent="1" vertex="1">
                    <mxGeometry x="1213" y="1460.5" width="120" height="60" as="geometry"/>
                </mxCell>
                <mxCell id="72" style="edgeStyle=none;html=1;exitX=1;exitY=0.5;exitDx=0;exitDy=0;entryX=1;entryY=0.5;entryDx=0;entryDy=0;fontSize=10;strokeColor=#000000;" parent="1" source="67" target="3" edge="1">
                    <mxGeometry relative="1" as="geometry">
                        <Array as="points">
                            <mxPoint x="2373" y="1494"/>
                            <mxPoint x="2373" y="219"/>
                        </Array>
                    </mxGeometry>
                </mxCell>
                <mxCell id="67" value="Vous vous perdez" style="rounded=1;whiteSpace=wrap;html=1;fontSize=10;fillColor=#1ba1e2;fontColor=#000000;strokeColor=#000000;" parent="1" vertex="1">
                    <mxGeometry x="1943" y="1460.5" width="120" height="60" as="geometry"/>
                </mxCell>
                <mxCell id="77" value="&lt;span style=&quot;background-color: rgb(255 , 255 , 255)&quot;&gt;Vous marchez&lt;/span&gt;" style="edgeStyle=none;html=1;exitX=0.5;exitY=1;exitDx=0;exitDy=0;fontSize=10;fontColor=#000000;strokeColor=#000000;" parent="1" source="74" target="76" edge="1">
                    <mxGeometry relative="1" as="geometry"/>
                </mxCell>
                <mxCell id="79" value="&lt;span style=&quot;background-color: rgb(255 , 255 , 255)&quot;&gt;Vous faites du pouce&lt;/span&gt;" style="edgeStyle=none;html=1;exitX=0;exitY=0.5;exitDx=0;exitDy=0;entryX=1;entryY=0.5;entryDx=0;entryDy=0;fontSize=10;fontColor=#000000;strokeColor=#000000;" parent="1" source="74" target="78" edge="1">
                    <mxGeometry relative="1" as="geometry"/>
                </mxCell>
                <mxCell id="74" value="Vous voulez rentrer chez vous" style="rhombus;whiteSpace=wrap;html=1;align=center;fillColor=#99004D;fontColor=#000000;strokeColor=#000000;" parent="1" vertex="1">
                    <mxGeometry x="903" y="1430.5" width="210" height="120" as="geometry"/>
                </mxCell>
                <mxCell id="76" value="Vous arrivez chez vous au bout de 5h de marche" style="rounded=1;whiteSpace=wrap;html=1;fontSize=10;fillColor=#1ba1e2;fontColor=#000000;strokeColor=#000000;" parent="1" vertex="1">
                    <mxGeometry x="948" y="1645" width="120" height="60" as="geometry"/>
                </mxCell>
                <mxCell id="83" style="edgeStyle=none;html=1;exitX=0;exitY=0.5;exitDx=0;exitDy=0;entryX=0;entryY=0.5;entryDx=0;entryDy=0;fontSize=11;fontColor=#000000;strokeColor=#000000;" parent="1" source="78" target="3" edge="1">
                    <mxGeometry relative="1" as="geometry">
                        <Array as="points">
                            <mxPoint x="513" y="1491"/>
                            <mxPoint x="513" y="219"/>
                        </Array>
                    </mxGeometry>
                </mxCell>
                <mxCell id="78" value="Vous retombez sur quelqu'un de mailveillant" style="rounded=1;whiteSpace=wrap;html=1;fontSize=10;fillColor=#1ba1e2;fontColor=#000000;strokeColor=#000000;" parent="1" vertex="1">
                    <mxGeometry x="573" y="1460.5" width="120" height="60" as="geometry"/>
                </mxCell>
                <mxCell id="86" value="&lt;font style=&quot;font-size: 22px&quot;&gt;&lt;font style=&quot;font-size: 22px&quot;&gt;&lt;font color=&quot;#000000&quot;&gt;Genre : Action&amp;nbsp;&lt;/font&gt;&lt;br&gt;&lt;font color=&quot;#000000&quot;&gt;Inspiration : Aucune&lt;/font&gt;&lt;br&gt;&lt;font color=&quot;#000000&quot;&gt;Nom : La poursuite&lt;/font&gt;&lt;br&gt;&lt;font color=&quot;#000000&quot;&gt;Couleur de fond :&amp;nbsp;&lt;/font&gt;&lt;span style=&quot;font-family: &amp;#34;consolas&amp;#34; , &amp;#34;courier new&amp;#34; , monospace&quot;&gt;&lt;font color=&quot;#660000&quot;&gt;#010321e1&lt;/font&gt;&lt;/span&gt;&lt;br&gt;&lt;font color=&quot;#000000&quot;&gt;Couleur des boutons :&amp;nbsp;&lt;/font&gt;&lt;span style=&quot;font-family: &amp;#34;consolas&amp;#34; , &amp;#34;courier new&amp;#34; , monospace&quot;&gt;&lt;font color=&quot;#660000&quot;&gt;#060328&lt;/font&gt;&lt;/span&gt;&lt;br&gt;&lt;font color=&quot;#000000&quot;&gt;Couleur de l'état de survol des boutons :&amp;nbsp;&lt;/font&gt;&lt;span style=&quot;font-family: &amp;#34;consolas&amp;#34; , &amp;#34;courier new&amp;#34; , monospace&quot;&gt;&lt;font color=&quot;#660000&quot;&gt;#243d61&lt;/font&gt;&lt;/span&gt;&lt;br&gt;&lt;/font&gt;&lt;font color=&quot;#000000&quot;&gt;&amp;nbsp;&lt;/font&gt;&lt;/font&gt;" style="text;html=1;strokeColor=none;fillColor=none;align=center;verticalAlign=middle;whiteSpace=wrap;rounded=0;strokeWidth=4;" parent="1" vertex="1">
                    <mxGeometry x="117" y="102" width="353" height="218" as="geometry"/>
                </mxCell>
            </root>
        </mxGraphModel>
    </diagram>
</mxfile>